<?xml version="1.0" encoding="UTF-8" standalone="no"?>
<svg width="141px" height="55px" viewBox="0 0 141 55" version="1.1" xmlns="http://www.w3.org/2000/svg" xmlns:xlink="http://www.w3.org/1999/xlink" xmlns:sketch="http://www.bohemiancoding.com/sketch/ns">
    <!-- Generator: Sketch 3.3.3 (12081) - http://www.bohemiancoding.com/sketch -->
    <title>logo copy</title>
    <desc>Created with Sketch.</desc>
    <defs></defs>
    <g id="Page-1" stroke="none" stroke-width="1" fill="none" fill-rule="evenodd" sketch:type="MSPage">
        <g id="website-copy-3" sketch:type="MSArtboardGroup" transform="translate(-570.000000, -620.000000)" fill="#FFFFFF" opacity="0.4">
            <path d="M578.054564,666.945436 C567.315145,656.206018 567.315145,638.793982 578.054564,628.054564 C588.793982,617.315145 606.206018,617.315145 616.945436,628.054564 C627.684855,638.793982 627.684855,656.206018 616.945436,666.945436 C606.206018,677.684855 588.793982,677.684855 578.054564,666.945436 L578.054564,666.945436 L578.054564,666.945436 Z M581.104828,663.895172 C590.159631,672.949975 604.840369,672.949975 613.895172,663.895172 C622.949975,654.840369 622.949975,640.159631 613.895172,631.104828 C604.840369,622.050025 590.159631,622.050025 581.104828,631.104828 C572.050025,640.159631 572.050025,654.840369 581.104828,663.895172 L581.104828,663.895172 L581.104828,663.895172 Z M600.550265,639.111772 L611.607292,650.1688 C614.767336,653.328844 614.766672,658.448275 611.607474,661.607474 C608.448444,664.766503 603.327685,664.766177 600.1688,661.607292 L599.406415,660.844907 L602.45668,657.794643 L603.219065,658.557028 C604.693422,660.031385 607.082881,660.031537 608.557209,658.557209 C610.03197,657.082448 610.032279,654.694317 608.557028,653.219065 L605.888228,650.550265 L594.8312,661.607292 C591.671156,664.767336 586.551725,664.766672 583.392526,661.607474 C580.233497,658.448444 580.233823,653.327685 583.392708,650.1688 L584.155093,649.406415 L587.205357,652.45668 L586.442972,653.219065 C584.968615,654.693422 584.968463,657.082881 586.442791,658.557209 C587.917552,660.03197 590.305683,660.032279 591.780935,658.557028 L594.449735,655.888228 L583.392708,644.8312 C580.232664,641.671156 580.233328,636.551725 583.392526,633.392526 C586.551556,630.233497 591.672315,630.233823 594.8312,633.392708 L595.593585,634.155093 L592.54332,637.205357 L591.780935,636.442972 C590.306578,634.968615 587.917119,634.968463 586.442791,636.442791 C584.96803,637.917552 584.967721,640.305683 586.442972,641.780935 L589.111772,644.449735 L600.1688,633.392708 C603.328844,630.232664 608.448275,630.233328 611.607474,633.392526 C614.766503,636.551556 614.766177,641.672315 611.607292,644.8312 L610.844907,645.593585 L607.794643,642.54332 L608.557028,641.780935 C610.031385,640.306578 610.031537,637.917119 608.557209,636.442791 C607.082448,634.96803 604.694317,634.967721 603.219065,636.442972 L600.550265,639.111772 L600.550265,639.111772 Z M602.647321,647.309358 L597.5,642.162037 L592.162037,647.5 L597.309358,652.647321 L602.647321,647.309358 Z M647.928538,652.351328 L647.928538,648.919164 L635.610236,648.919164 L635.610236,663.956335 L648.143517,663.956335 L648.143517,660.52417 L640.081801,660.52417 L640.081801,658.143106 L647.197609,658.143106 L647.197609,654.710941 L640.081801,654.710941 L640.081801,652.351328 L647.928538,652.351328 Z M660.44032,661.553819 L661.321735,663.956335 L666.09427,663.956335 L659.881375,648.919164 L655.280822,648.919164 L648.852948,663.956335 L653.4535,663.956335 L654.356412,661.553819 L660.44032,661.553819 Z M659.257936,658.293263 L655.603291,658.293263 L657.452111,653.380978 L659.257936,658.293263 Z M676.026304,663.956335 L681.099811,663.956335 L678.047108,659.044049 C679.680949,658.121655 680.583861,656.491377 680.583861,654.26047 C680.583861,650.849756 678.262087,648.919164 674.22048,648.919164 L667.190664,648.919164 L667.190664,663.956335 L671.662229,663.956335 L671.662229,659.90209 L674.026999,659.90209 L676.026304,663.956335 Z M671.662229,656.469926 L671.662229,652.351328 L674.22048,652.351328 C675.55335,652.351328 676.327275,653.080663 676.327275,654.389176 C676.327275,655.740591 675.55335,656.469926 674.22048,656.469926 L671.662229,656.469926 Z M694.87997,652.480035 L694.87997,648.919164 L681.637258,648.919164 L681.637258,652.480035 L686.001334,652.480035 L686.001334,663.956335 L690.494397,663.956335 L690.494397,652.480035 L694.87997,652.480035 Z M710.573443,663.956335 L710.573443,648.919164 L706.101878,648.919164 L706.101878,654.904001 L700.748899,654.904001 L700.748899,648.919164 L696.277334,648.919164 L696.277334,663.956335 L700.748899,663.956335 L700.748899,658.357616 L706.101878,658.357616 L706.101878,663.956335 L710.573443,663.956335 Z M647.760943,631.043307 L645.406619,631.043307 L645.406619,639.205747 C645.406619,641.574846 643.990034,642.968433 641.715517,642.968433 C639.421049,642.968433 637.96456,641.554937 637.96456,639.205747 L637.96456,631.043307 L635.610236,631.043307 L635.610236,639.205747 C635.610236,642.848983 637.924657,645.078722 641.695566,645.078722 C645.466475,645.078722 647.760943,642.848983 647.760943,639.205747 L647.760943,631.043307 Z M663.243617,644.97918 L663.243617,631.043307 L660.929197,631.043307 L660.929197,641.057227 L653.447234,631.043307 L651.132814,631.043307 L651.132814,644.97918 L653.487138,644.97918 L653.487138,634.985168 L660.929197,644.97918 L663.243617,644.97918 Z M669.289042,644.97918 L669.289042,631.043307 L666.934718,631.043307 L666.934718,644.97918 L669.289042,644.97918 Z M682.4972,633.153596 L682.4972,631.043307 L671.304184,631.043307 L671.304184,633.153596 L675.713554,633.153596 L675.713554,644.97918 L678.067878,644.97918 L678.067878,633.153596 L682.4972,633.153596 Z M694.488291,633.153596 L694.488291,631.043307 L684.512342,631.043307 L684.512342,644.97918 L694.727714,644.97918 L694.727714,642.868891 L686.866666,642.868891 L686.866666,639.026572 L693.690215,639.026572 L693.690215,636.916282 L686.866666,636.916282 L686.866666,633.153596 L694.488291,633.153596 Z M697.600788,631.043307 L697.600788,644.97918 L703.267127,644.97918 C707.49693,644.97918 710.54957,642.032739 710.54957,638.011244 C710.54957,633.96984 707.516882,631.043307 703.326983,631.043307 L697.600788,631.043307 Z M699.955112,633.153596 L703.287079,633.153596 C706.040441,633.153596 708.175294,635.184252 708.175294,638.031152 C708.175294,640.858144 706.100297,642.868891 703.386838,642.868891 L699.955112,642.868891 L699.955112,633.153596 Z" id="logo-copy" sketch:type="MSShapeGroup"></path>
        </g>
    </g>
</svg>