<?xml version="1.0" encoding="UTF-8" standalone="no"?>
<svg width="558px" height="198px" viewBox="0 0 558 198" version="1.1" xmlns="http://www.w3.org/2000/svg" xmlns:xlink="http://www.w3.org/1999/xlink" xmlns:sketch="http://www.bohemiancoding.com/sketch/ns">
    <!-- Generator: Sketch 3.3.3 (12081) - http://www.bohemiancoding.com/sketch -->
    <title>final_logo copy</title>
    <desc>Created with Sketch.</desc>
    <defs></defs>
    <g id="Page-1" stroke="none" stroke-width="1" fill="none" fill-rule="evenodd" sketch:type="MSPage">
        <g id="logo" sketch:type="MSArtboardGroup" transform="translate(-557.000000, -2941.000000)">
            <g id="final_logo-copy" sketch:type="MSLayerGroup" transform="translate(557.000000, 2941.000000)">
                <path d="M99,198 C153.67619,198 198,153.67619 198,99 C198,44.3238098 153.67619,0 99,0 C44.3238098,0 0,44.3238098 0,99 C0,153.67619 44.3238098,198 99,198 L99,198 Z M99,188 C49.8466573,188 10,148.153343 10,99 C10,49.8466573 49.8466573,10 99,10 C148.153343,10 188,49.8466573 188,99 C188,148.153343 148.153343,188 99,188 L99,188 Z" id="Shape" fill="#000000" sketch:type="MSShapeGroup"></path>
                <path d="M125,121.36196 L125,143.999048 C125,158.912043 112.913579,171 98,171 C85.7213514,171 75.3603693,162.811311 72.0814637,151.592566 C73.3757322,151.057658 74.6498419,150.431637 75.8957064,149.712337 L81.2046975,146.64719 C82.4753116,154.783029 89.5081383,161 98,161 C107.390447,161 115,153.38948 115,143.999048 L115,127.135463 L125,121.36196 L125,121.36196 Z M123.918536,48.4074344 C120.639631,37.1886895 110.278649,29 98,29 C83.0864206,29 71,41.0879574 71,56.0009517 L71,78.63804 L81,72.8645373 L81,56.0009517 C81,46.6105203 88.6095527,39 98,39 C106.491862,39 113.524688,45.2169705 114.795302,53.3528104 L120.104294,50.2876629 C121.350158,49.5683627 122.624268,48.9423416 123.918536,48.4074344 L123.918536,48.4074344 Z M125,98.2679492 L125,70.5551363 L115,76.328639 L115,104.041452 L125,98.2679492 L125,98.2679492 Z M71,101.732051 L71,129.444864 L81,123.671361 L81,95.9585481 L71,101.732051 L71,101.732051 Z" id="Shape-Copy-6" fill="#000000" sketch:type="MSShapeGroup"></path>
                <path d="M125,121.36196 L125,143.999048 C125,158.912043 112.913579,171 98,171 C85.7213514,171 75.3603693,162.811311 72.0814637,151.592566 C73.3757322,151.057658 74.6498419,150.431637 75.8957064,149.712337 L81.2046975,146.64719 C82.4753116,154.783029 89.5081383,161 98,161 C107.390447,161 115,153.38948 115,143.999048 L115,127.135463 L125,121.36196 L125,121.36196 Z M123.918536,48.4074344 C120.639631,37.1886895 110.278649,29 98,29 C83.0864206,29 71,41.0879574 71,56.0009517 L71,78.63804 L81,72.8645373 L81,56.0009517 C81,46.6105203 88.6095527,39 98,39 C106.491862,39 113.524688,45.2169705 114.795302,53.3528104 L120.104294,50.2876629 C121.350158,49.5683627 122.624268,48.9423416 123.918536,48.4074344 L123.918536,48.4074344 Z M125,98.2679492 L125,70.5551363 L115,76.328639 L115,104.041452 L125,98.2679492 L125,98.2679492 Z M71,101.732051 L71,129.444864 L81,123.671361 L81,95.9585481 L71,101.732051 L71,101.732051 Z" id="Shape-Copy-7" fill="#EABC58" sketch:type="MSShapeGroup" transform="translate(98.000000, 100.000000) rotate(-60.000000) translate(-98.000000, -100.000000) "></path>
                <path d="M125,121.36196 L125,143.999048 C125,158.912043 112.913579,171 98,171 C85.7213514,171 75.3603693,162.811311 72.0814637,151.592566 C73.3757322,151.057658 74.6498419,150.431637 75.8957064,149.712337 L81.2046975,146.64719 C82.4753116,154.783029 89.5081383,161 98,161 C107.390447,161 115,153.38948 115,143.999048 L115,127.135463 L125,121.36196 L125,121.36196 Z M123.918536,48.4074344 C120.639631,37.1886895 110.278649,29 98,29 C83.0864206,29 71,41.0879574 71,56.0009517 L71,78.63804 L81,72.8645373 L81,56.0009517 C81,46.6105203 88.6095527,39 98,39 C106.491862,39 113.524688,45.2169705 114.795302,53.3528104 L120.104294,50.2876629 C121.350158,49.5683627 122.624268,48.9423416 123.918536,48.4074344 L123.918536,48.4074344 Z M125,98.2679492 L125,70.5551363 L115,76.328639 L115,104.041452 L125,98.2679492 L125,98.2679492 Z M71,101.732051 L71,129.444864 L81,123.671361 L81,95.9585481 L71,101.732051 L71,101.732051 Z" id="Shape-Copy-8" fill="#9B9B9B" sketch:type="MSShapeGroup" transform="translate(98.000000, 100.000000) rotate(60.000000) translate(-98.000000, -100.000000) "></path>
                <path d="M301.879462,118.751174 L301.879462,104.77783 L251.656676,104.77783 L251.656676,165.998541 L302.755951,165.998541 L302.755951,152.025198 L269.887635,152.025198 L269.887635,142.331191 L298.899402,142.331191 L298.899402,128.357847 L269.887635,128.357847 L269.887635,118.751174 L301.879462,118.751174 Z M352.891088,156.217201 L356.484691,165.998541 L375.942734,165.998541 L350.612218,104.77783 L331.855366,104.77783 L305.648362,165.998541 L324.405215,165.998541 L328.086466,156.217201 L352.891088,156.217201 Z M348.070402,142.942525 L333.170099,142.942525 L340.707899,122.943177 L348.070402,142.942525 Z M416.436499,165.998541 L437.121625,165.998541 L424.67549,145.999193 C431.336802,142.243857 435.018053,135.606519 435.018053,126.523846 C435.018053,112.637836 425.551978,104.77783 409.073996,104.77783 L380.412825,104.77783 L380.412825,165.998541 L398.643784,165.998541 L398.643784,149.492529 L408.285156,149.492529 L416.436499,165.998541 Z M398.643784,135.519186 L398.643784,118.751174 L409.073996,118.751174 C414.508224,118.751174 417.663582,121.720509 417.663582,127.047846 C417.663582,132.54985 414.508224,135.519186 409.073996,135.519186 L398.643784,135.519186 Z M493.304533,119.275174 L493.304533,104.77783 L439.312846,104.77783 L439.312846,119.275174 L457.105561,119.275174 L457.105561,165.998541 L475.424169,165.998541 L475.424169,119.275174 L493.304533,119.275174 Z M557.288188,165.998541 L557.288188,104.77783 L539.057229,104.77783 L539.057229,129.143848 L517.232667,129.143848 L517.232667,104.77783 L499.001708,104.77783 L499.001708,165.998541 L517.232667,165.998541 L517.232667,143.204525 L539.057229,143.204525 L539.057229,165.998541 L557.288188,165.998541 Z M301.196164,32 L291.597379,32 L291.597379,65.2316759 C291.597379,74.8769672 285.82184,80.550668 276.548438,80.550668 C267.193691,80.550668 261.25546,74.7959144 261.25546,65.2316759 L261.25546,32 L251.656676,32 L251.656676,65.2316759 C251.656676,80.0643508 261.092769,89.142272 276.467092,89.142272 C291.841416,89.142272 301.196164,80.0643508 301.196164,65.2316759 L301.196164,32 Z M364.320371,88.7370077 L364.320371,32 L354.884278,32 L354.884278,72.7695927 L324.379668,32 L314.943575,32 L314.943575,88.7370077 L324.542359,88.7370077 L324.542359,48.0484679 L354.884278,88.7370077 L364.320371,88.7370077 Z M388.968097,88.7370077 L388.968097,32 L379.369313,32 L379.369313,88.7370077 L388.968097,88.7370077 Z M442.818903,40.591604 L442.818903,32 L397.184005,32 L397.184005,40.591604 L415.161389,40.591604 L415.161389,88.7370077 L424.760173,88.7370077 L424.760173,40.591604 L442.818903,40.591604 Z M491.707626,40.591604 L491.707626,32 L451.034811,32 L451.034811,88.7370077 L492.683773,88.7370077 L492.683773,80.1454037 L460.633596,80.1454037 L460.633596,64.5022001 L488.4538,64.5022001 L488.4538,55.9105961 L460.633596,55.9105961 L460.633596,40.591604 L491.707626,40.591604 Z M504.397544,32 L504.397544,88.7370077 L527.499702,88.7370077 C544.744975,88.7370077 557.190857,76.7411832 557.190857,60.3685038 C557.190857,43.9147716 544.826321,32 527.743739,32 L504.397544,32 Z M513.996328,40.591604 L527.581048,40.591604 C538.806745,40.591604 547.510727,48.8589966 547.510727,60.4495567 C547.510727,71.959064 539.050781,80.1454037 527.987776,80.1454037 L513.996328,80.1454037 L513.996328,40.591604 Z" id="logo-copy-4" fill="#000000" sketch:type="MSShapeGroup"></path>
            </g>
        </g>
    </g>
</svg>