<?xml version="1.0" encoding="UTF-8" standalone="no"?>
<!-- Created with Inkscape (http://www.inkscape.org/) -->

<svg
   xmlns:dc="http://purl.org/dc/elements/1.1/"
   xmlns:cc="http://creativecommons.org/ns#"
   xmlns:rdf="http://www.w3.org/1999/02/22-rdf-syntax-ns#"
   xmlns:svg="http://www.w3.org/2000/svg"
   xmlns="http://www.w3.org/2000/svg"
   xmlns:sodipodi="http://sodipodi.sourceforge.net/DTD/sodipodi-0.dtd"
   xmlns:inkscape="http://www.inkscape.org/namespaces/inkscape"
   id="svg2"
   version="1.1"
   inkscape:version="0.91 r13725"
   xml:space="preserve"
   width="696.92499"
   height="247.5"
   viewBox="0 0 696.92499 247.5"
   sodipodi:docname="logo_green.svg"><metadata
     id="metadata8"><rdf:RDF><cc:Work
         rdf:about=""><dc:format>image/svg+xml</dc:format><dc:type
           rdf:resource="http://purl.org/dc/dcmitype/StillImage" /><dc:title></dc:title></cc:Work></rdf:RDF></metadata><defs
     id="defs6"><clipPath
       clipPathUnits="userSpaceOnUse"
       id="clipPath20"><path
         d="m 0,0 0,1980 5575,0 L 5575,0 0,0 Z"
         id="path22"
         inkscape:connector-curvature="0" /></clipPath><clipPath
       clipPathUnits="userSpaceOnUse"
       id="clipPath26"><path
         d="m 3021.32,786.82 0,139.739 -502.23,0 0,-612.2 511,0 0,139.723 -328.69,0 0,96.938 290.11,0 0,139.742 -290.11,0 0,96.058 319.92,0 z m 510.12,-374.648 35.93,-97.813 194.57,0 -253.3,612.2 -187.56,0 -262.07,-612.2 187.56,0 36.82,97.813 248.05,0 z m -48.21,132.726 -149,0 75.37,200 73.63,-200 z m 683.65,-230.539 206.86,0 -124.45,199.981 c 66.6,37.551 103.42,103.922 103.42,194.762 0,138.847 -94.67,217.457 -259.44,217.457 l -286.62,0 0,-612.2 182.31,0 0,165.051 96.42,0 81.5,-165.051 z m -177.92,304.782 0,167.679 104.31,0 c 54.34,0 85.9,-29.691 85.9,-82.968 0,-55.024 -31.56,-84.711 -85.9,-84.711 l -104.31,0 z m 946.62,162.437 0,144.981 -539.93,0 0,-144.981 177.93,0 0,-467.219 183.19,0 0,467.219 178.81,0 z m 639.82,-467.219 0,612.2 -182.3,0 0,-243.668 -218.25,0 0,243.668 -182.3,0 0,-612.2 182.3,0 0,227.93 218.25,0 0,-227.93 182.3,0 z m -2560.92,1339.981 -95.97,0 0,-332.33 c 0,-96.44 -57.78,-153.18 -150.51,-153.18 -93.54,0 -152.93,57.54 -152.93,153.18 l 0,332.33 -95.98,0 0,-332.33 c 0,-148.32 94.36,-239.1 248.11,-239.1 153.73,0 247.28,90.78 247.28,239.1 l 0,332.33 z m 631.25,-567.39 0,567.39 -94.37,0 0,-407.7 -305.04,407.7 -94.36,0 0,-567.39 95.98,0 0,406.9 303.42,-406.9 94.37,0 z m 246.47,0 0,567.39 -95.98,0 0,-567.39 95.98,0 z m 538.51,481.47 0,85.92 -456.34,0 0,-85.92 179.76,0 0,-481.47 96,0 0,481.47 180.58,0 z m 488.89,0 0,85.92 -406.72,0 0,-567.39 416.49,0 0,85.92 -320.51,0 0,156.45 278.2,0 0,85.91 -278.2,0 0,153.19 310.74,0 z m 126.89,85.92 0,-567.39 231.04,0 c 172.44,0 296.91,119.96 296.91,283.69 0,164.54 -123.65,283.7 -294.47,283.7 l -233.48,0 z m 96,-85.92 135.84,0 c 112.27,0 199.3,-82.68 199.3,-198.58 0,-115.09 -84.59,-196.97 -195.22,-196.97 l -139.92,0 0,395.55 z"
         id="path28"
         inkscape:connector-curvature="0" /></clipPath></defs><sodipodi:namedview
     pagecolor="#ffffff"
     bordercolor="#666666"
     borderopacity="1"
     objecttolerance="10"
     gridtolerance="10"
     guidetolerance="10"
     inkscape:pageopacity="0"
     inkscape:pageshadow="2"
     inkscape:window-width="640"
     inkscape:window-height="480"
     id="namedview4"
     showgrid="false"
     inkscape:zoom="0.51225025"
     inkscape:cx="348.46249"
     inkscape:cy="123.75"
     inkscape:window-x="0"
     inkscape:window-y="0"
     inkscape:window-maximized="0"
     inkscape:current-layer="g10" /><g
     id="g10"
     inkscape:groupmode="layer"
     inkscape:label="ink_ext_XXXXXX"
     transform="matrix(1.25,0,0,-1.25,0,247.5)"><g
       id="g12"
       transform="scale(0.1,0.1)"><path
         d="m 3021.32,786.82 0,139.739 -502.23,0 0,-612.2 511,0 0,139.723 -328.69,0 0,96.938 290.11,0 0,139.742 -290.11,0 0,96.058 319.92,0 z m 510.12,-374.648 35.93,-97.813 194.57,0 -253.3,612.2 -187.56,0 -262.07,-612.2 187.56,0 36.82,97.813 248.05,0 z m -48.21,132.726 -149,0 75.37,200 73.63,-200 z m 683.65,-230.539 206.86,0 -124.45,199.981 c 66.6,37.551 103.42,103.922 103.42,194.762 0,138.847 -94.67,217.457 -259.44,217.457 l -286.62,0 0,-612.2 182.31,0 0,165.051 96.42,0 81.5,-165.051 z m -177.92,304.782 0,167.679 104.31,0 c 54.34,0 85.9,-29.691 85.9,-82.968 0,-55.024 -31.56,-84.711 -85.9,-84.711 l -104.31,0 z m 946.62,162.437 0,144.981 -539.93,0 0,-144.981 177.93,0 0,-467.219 183.19,0 0,467.219 178.81,0 z m 639.82,-467.219 0,612.2 -182.3,0 0,-243.668 -218.25,0 0,243.668 -182.3,0 0,-612.2 182.3,0 0,227.93 218.25,0 0,-227.93 182.3,0 z m -2560.92,1339.981 -95.97,0 0,-332.33 c 0,-96.44 -57.78,-153.18 -150.51,-153.18 -93.54,0 -152.93,57.54 -152.93,153.18 l 0,332.33 -95.98,0 0,-332.33 c 0,-148.32 94.36,-239.1 248.11,-239.1 153.73,0 247.28,90.78 247.28,239.1 l 0,332.33 z m 631.25,-567.39 0,567.39 -94.37,0 0,-407.7 -305.04,407.7 -94.36,0 0,-567.39 95.98,0 0,406.9 303.42,-406.9 94.37,0 z m 246.47,0 0,567.39 -95.98,0 0,-567.39 95.98,0 z m 538.51,481.47 0,85.92 -456.34,0 0,-85.92 179.76,0 0,-481.47 96,0 0,481.47 180.58,0 z m 488.89,0 0,85.92 -406.72,0 0,-567.39 416.49,0 0,85.92 -320.51,0 0,156.45 278.2,0 0,85.91 -278.2,0 0,153.19 310.74,0 z m 126.89,85.92 0,-567.39 231.04,0 c 172.44,0 296.91,119.96 296.91,283.69 0,164.54 -123.65,283.7 -294.47,283.7 l -233.48,0 z m 96,-85.92 135.84,0 c 112.27,0 199.3,-82.68 199.3,-198.58 0,-115.09 -84.59,-196.97 -195.22,-196.97 l -139.92,0 0,395.55"
         style="fill:#2a5928;fill-opacity:1;fill-rule:nonzero;stroke:none"
         id="path14"
         inkscape:connector-curvature="0" /><g
         id="g16"><g
           id="g18"
           clip-path="url(#clipPath20)"><g
             id="g24"
             clip-path="url(#clipPath26)"><path
               d="m 0,0 26052.5,0 0,32766 L 0,32766 0,0 Z"
               style="fill:#2a5928;fill-opacity:1;fill-rule:nonzero;stroke:none"
               id="path30"
               inkscape:connector-curvature="0" /><path
               d="m 2469.09,264.34 3156.31,0 0,1440 -3156.31,0 0,-1440 z"
               style="fill:#2a5928;fill-opacity:1;fill-rule:nonzero;stroke:none"
               id="path32"
               inkscape:connector-curvature="0" /></g></g></g><path
         d="m 990,0 c 546.76,0 990,443.238 990,990 0,546.76 -443.24,990 -990,990 C 443.23,1980 0,1536.76 0,990 0,443.238 443.23,0 990,0 Z m 0,100 c -491.543,0 -890,398.461 -890,890 0,491.52 398.457,890 890,890 491.52,0 890,-398.48 890,-890 0,-491.539 -398.48,-890 -890,-890"
         style="fill:#2a5928;fill-opacity:1;fill-rule:nonzero;stroke:none"
         id="path34"
         inkscape:connector-curvature="0" /><path
         d="m 1277.14,1346.86 c 81.48,46.81 185.49,18.71 232.31,-62.78 42.36,-73.69 23.47,-165.74 -40.79,-217.34 l 53.08,-30.8 c 12.45,-7.21 24.23,-15.15 35.34,-23.69 81.01,84.37 100.4,215.13 39.15,321.71 -74.34,129.4 -239.55,174.05 -368.95,99.67 l -196.48,-112.88 99.98,-58.01 146.36,84.12"
         style="fill:#fcc919;fill-opacity:1;fill-rule:nonzero;stroke:none"
         id="path36"
         inkscape:connector-curvature="0" /><path
         d="m 589.848,1067.38 99.988,-58 240.508,138.18 -99.961,58.01 -240.535,-138.19"
         style="fill:#48aab7;fill-opacity:1;fill-rule:nonzero;stroke:none"
         id="path38"
         inkscape:connector-curvature="0" /><path
         d="M 363.84,625.801 C 438.219,496.371 603.402,451.762 732.832,526.148 L 929.316,639.039 829.324,697.02 682.969,612.91 c -81.492,-46.82 -185.496,-18.75 -232.324,62.77 -42.352,73.691 -23.473,165.711 40.808,217.34 l -53.07,30.789 c -12.465,7.222 -24.235,15.152 -35.356,23.711 C 322.02,863.121 302.617,732.359 363.84,625.801"
         style="fill:#71389f;fill-opacity:1;fill-rule:nonzero;stroke:none"
         id="path40"
         inkscape:connector-curvature="0" /><path
         d="m 1370.23,892.398 -99.96,57.993 -240.51,-138.211 99.98,-57.981 240.49,138.199"
         style="fill:#f68722;fill-opacity:1;fill-rule:nonzero;stroke:none"
         id="path42"
         inkscape:connector-curvature="0" /><path
         d="m 1250.35,996.648 0.55,277.402 -100.21,-57.57 -0.55,-277.421 100.21,57.589"
         style="fill:#b6dd25;fill-opacity:1;fill-rule:nonzero;stroke:none"
         id="path44"
         inkscape:connector-curvature="0" /><path
         d="M 810.961,513.301 757.777,482.75 c -12.5,-7.18 -25.238,-13.43 -38.23,-18.75 32.605,-112.352 136.144,-194.551 259.043,-194.809 149.29,-0.3 270.51,120.438 270.82,269.719 l 0.47,226.602 -100.23,-57.59 -0.33,-168.82 c -0.21,-93.981 -76.53,-169.993 -170.515,-169.801 -85,0.168 -155.274,62.539 -167.844,144"
         style="fill:#ee2427;fill-opacity:1;fill-rule:nonzero;stroke:none"
         id="path46"
         inkscape:connector-curvature="0" /><path
         d="m 709.762,963.109 -0.582,-277.41 100.215,57.582 0.57,277.409 -100.203,-57.581"
         style="fill:#524ba8;fill-opacity:1;fill-rule:nonzero;stroke:none"
         id="path48"
         inkscape:connector-curvature="0" /><path
         d="m 710.703,1420.84 -0.473,-226.58 100.208,57.6 0.355,168.78 c 0.191,93.99 76.512,170.02 170.52,169.8 85.007,-0.16 155.257,-62.55 167.807,-143.98 l 53.22,30.58 c 12.46,7.15 25.25,13.39 38.21,18.72 -32.6,112.37 -136.11,194.53 -259.042,194.78 -149.258,0.3 -270.496,-120.42 -270.805,-269.7"
         style="fill:#2b8a3c;fill-opacity:1;fill-rule:nonzero;stroke:none"
         id="path50"
         inkscape:connector-curvature="0" /><path
         d="m 1299.58,600.172 -0.14,-61.363 c -0.01,-14.418 -1,-28.579 -2.85,-42.457 113.58,-27.973 236.52,20.617 298.19,126.918 74.91,129.128 30.96,294.48 -98.17,369.386 l -195.99,113.714 -0.24,-115.6 146.02,-84.711 c 81.3,-47.137 108.97,-151.258 61.79,-232.579 -42.62,-73.511 -131.78,-103.179 -208.61,-73.308"
         style="fill:#f25522;fill-opacity:1;fill-rule:nonzero;stroke:none"
         id="path52"
         inkscape:connector-curvature="0" /><path
         d="m 859.668,853.012 -0.227,-115.59 239.939,-139.192 0.23,115.559 -239.942,139.223"
         style="fill:#d7269c;fill-opacity:1;fill-rule:nonzero;stroke:none"
         id="path54"
         inkscape:connector-curvature="0" /><path
         d="m 860.48,1245.95 239.95,-139.16 0.23,115.57 -239.953,139.16 -0.227,-115.57"
         style="fill:#5dc233;fill-opacity:1;fill-rule:nonzero;stroke:none"
         id="path56"
         inkscape:connector-curvature="0" /><path
         d="m 463.508,967.09 195.984,-113.668 0.235,115.558 -146,84.7 c -81.321,47.16 -108.997,151.24 -61.817,232.57 42.664,73.52 131.805,103.21 208.613,73.35 l 0.129,61.35 c 0.036,14.38 0.996,28.56 2.879,42.46 -113.586,27.98 -236.539,-20.61 -298.211,-126.95 -74.89,-129.08 -30.945,-294.47 98.188,-369.37"
         style="fill:#4155ae;fill-opacity:1;fill-rule:nonzero;stroke:none"
         id="path58"
         inkscape:connector-curvature="0" /></g></g></svg>