<?xml version="1.0" encoding="UTF-8" standalone="no"?>
<svg width="198px" height="198px" viewBox="0 0 198 198" version="1.1" xmlns="http://www.w3.org/2000/svg" xmlns:xlink="http://www.w3.org/1999/xlink" xmlns:sketch="http://www.bohemiancoding.com/sketch/ns">
    <!-- Generator: Sketch 3.3.3 (12081) - http://www.bohemiancoding.com/sketch -->
    <title>Group</title>
    <desc>Created with Sketch.</desc>
    <defs></defs>
    <g id="Page-1" stroke="none" stroke-width="1" fill="none" fill-rule="evenodd" sketch:type="MSPage">
        <g id="logo" sketch:type="MSArtboardGroup" transform="translate(-546.000000, -2668.000000)">
            <g id="final_logo-copy-4" sketch:type="MSLayerGroup" transform="translate(546.000000, 2668.000000)">
                <g id="Group" sketch:type="MSShapeGroup">
                    <path d="M99,198 C153.67619,198 198,153.67619 198,99 C198,44.3238098 153.67619,0 99,0 C44.3238098,0 0,44.3238098 0,99 C0,153.67619 44.3238098,198 99,198 L99,198 Z M99,188 C49.8466573,188 10,148.153343 10,99 C10,49.8466573 49.8466573,10 99,10 C148.153343,10 188,49.8466573 188,99 C188,148.153343 148.153343,188 99,188 L99,188 Z" id="Shape" fill="#9B9B9B"></path>
                    <path d="M125,121.36196 L125,143.999048 C125,158.912043 112.913579,171 98,171 C85.7213514,171 75.3603693,162.811311 72.0814637,151.592566 C73.3757322,151.057658 74.6498419,150.431637 75.8957064,149.712337 L81.2046975,146.64719 C82.4753116,154.783029 89.5081383,161 98,161 C107.390447,161 115,153.38948 115,143.999048 L115,127.135463 L125,121.36196 L125,121.36196 Z M123.918536,48.4074344 C120.639631,37.1886895 110.278649,29 98,29 C83.0864206,29 71,41.0879574 71,56.0009517 L71,78.63804 L81,72.8645373 L81,56.0009517 C81,46.6105203 88.6095527,39 98,39 C106.491862,39 113.524688,45.2169705 114.795302,53.3528104 L120.104294,50.2876629 C121.350158,49.5683627 122.624268,48.9423416 123.918536,48.4074344 L123.918536,48.4074344 Z M125,98.2679492 L125,70.5551363 L115,76.328639 L115,104.041452 L125,98.2679492 L125,98.2679492 Z M71,101.732051 L71,129.444864 L81,123.671361 L81,95.9585481 L71,101.732051 L71,101.732051 Z" id="Shape-Copy-6" fill="#9B9B9B"></path>
                    <path d="M125,121.36196 L125,143.999048 C125,158.912043 112.913579,171 98,171 C85.7213514,171 75.3603693,162.811311 72.0814637,151.592566 C73.3757322,151.057658 74.6498419,150.431637 75.8957064,149.712337 L81.2046975,146.64719 C82.4753116,154.783029 89.5081383,161 98,161 C107.390447,161 115,153.38948 115,143.999048 L115,127.135463 L125,121.36196 L125,121.36196 Z M123.918536,48.4074344 C120.639631,37.1886895 110.278649,29 98,29 C83.0864206,29 71,41.0879574 71,56.0009517 L71,78.63804 L81,72.8645373 L81,56.0009517 C81,46.6105203 88.6095527,39 98,39 C106.491862,39 113.524688,45.2169705 114.795302,53.3528104 L120.104294,50.2876629 C121.350158,49.5683627 122.624268,48.9423416 123.918536,48.4074344 L123.918536,48.4074344 Z M125,98.2679492 L125,70.5551363 L115,76.328639 L115,104.041452 L125,98.2679492 L125,98.2679492 Z M71,101.732051 L71,129.444864 L81,123.671361 L81,95.9585481 L71,101.732051 L71,101.732051 Z" id="Shape-Copy-7" fill="#EABC58" transform="translate(98.000000, 100.000000) rotate(-60.000000) translate(-98.000000, -100.000000) "></path>
                    <path d="M125,121.36196 L125,143.999048 C125,158.912043 112.913579,171 98,171 C85.7213514,171 75.3603693,162.811311 72.0814637,151.592566 C73.3757322,151.057658 74.6498419,150.431637 75.8957064,149.712337 L81.2046975,146.64719 C82.4753116,154.783029 89.5081383,161 98,161 C107.390447,161 115,153.38948 115,143.999048 L115,127.135463 L125,121.36196 L125,121.36196 Z M123.918536,48.4074344 C120.639631,37.1886895 110.278649,29 98,29 C83.0864206,29 71,41.0879574 71,56.0009517 L71,78.63804 L81,72.8645373 L81,56.0009517 C81,46.6105203 88.6095527,39 98,39 C106.491862,39 113.524688,45.2169705 114.795302,53.3528104 L120.104294,50.2876629 C121.350158,49.5683627 122.624268,48.9423416 123.918536,48.4074344 L123.918536,48.4074344 Z M125,98.2679492 L125,70.5551363 L115,76.328639 L115,104.041452 L125,98.2679492 L125,98.2679492 Z M71,101.732051 L71,129.444864 L81,123.671361 L81,95.9585481 L71,101.732051 L71,101.732051 Z" id="Shape-Copy-8" fill="#9B9B9B" transform="translate(98.000000, 100.000000) rotate(60.000000) translate(-98.000000, -100.000000) "></path>
                </g>
            </g>
        </g>
    </g>
</svg>